<svg width="30" height="30" viewBox="0 0 30 30" fill="none" xmlns="http://www.w3.org/2000/svg">
<path d="M15 2.1875C16.8615 2.1875 18.6569 2.2264 20.3442 2.29859L20.4272 2.30225C21.8863 2.36461 23.0899 2.41596 24.0735 2.61475C25.1244 2.82714 25.9901 3.2183 26.7529 3.98681C28.2709 5.5164 28.2872 7.43806 28.3875 10.2795C28.4199 11.1988 28.4375 12.1507 28.4375 13.125C28.4375 14.0994 28.4199 15.0511 28.3875 15.9705C28.2872 18.8119 28.2709 20.7336 26.7529 22.2631C25.9901 23.0317 25.1244 23.4229 24.0735 23.6353C23.0898 23.834 21.8864 23.8854 20.4272 23.9478L20.3442 23.9514C19.4194 23.991 18.462 24.0206 17.4792 24.0392C16.4829 24.0582 16.2166 24.0759 15.9985 24.1589C15.7799 24.2423 15.5769 24.3998 14.8413 25.0305L12.1167 27.367C11.7814 27.6545 11.3536 27.8125 10.9119 27.8125C9.89061 27.8123 9.06278 26.9844 9.0625 25.9631V23.9245C7.83024 23.8699 6.7932 23.8104 5.92651 23.6353C4.87561 23.4229 4.00985 23.0317 3.24708 22.2631C1.72914 20.7336 1.71279 18.8119 1.61255 15.9705C1.58011 15.0511 1.5625 14.0994 1.5625 13.125C1.5625 12.1507 1.58011 11.1988 1.61255 10.2795C1.71279 7.43808 1.72914 5.5164 3.24708 3.98681C4.00985 3.2183 4.87561 2.82714 5.92651 2.61475C6.91019 2.41596 8.11371 2.36461 9.57275 2.30225L9.65576 2.29859C11.3431 2.2264 13.1385 2.1875 15 2.1875ZM9.375 14.375C8.68465 14.375 8.125 14.9346 8.125 15.625C8.125 16.3154 8.68465 16.875 9.375 16.875H16.25C16.9404 16.875 17.5 16.3154 17.5 15.625C17.5 14.9346 16.9404 14.375 16.25 14.375H9.375ZM9.375 9.375C8.68465 9.375 8.125 9.93465 8.125 10.625C8.125 11.3153 8.68465 11.875 9.375 11.875H20.625C21.3154 11.875 21.875 11.3153 21.875 10.625C21.875 9.93465 21.3154 9.375 20.625 9.375H9.375Z" fill="#8C43FF"/>
</svg>
