<svg width="30" height="30" viewBox="0 0 30 30" fill="none" xmlns="http://www.w3.org/2000/svg">
<path opacity="0.4" d="M9.375 10.625H20.625M9.375 15.625H16.25" stroke="#9CA1B8" stroke-width="1.875" stroke-linecap="round" stroke-linejoin="round"/>
<path d="M2.5 13.125C2.5 12.1615 2.51682 11.221 2.54886 10.3129C2.65352 7.34604 2.70586 5.86261 3.91259 4.64681C5.11931 3.43101 6.64462 3.36575 9.69525 3.23524C11.369 3.16363 13.1511 3.125 15 3.125C16.8489 3.125 18.631 3.16363 20.3047 3.23524C23.3554 3.36575 24.8807 3.43101 26.0874 4.64681C27.2941 5.86261 27.3465 7.34604 27.4511 10.3129C27.4831 11.221 27.5 12.1615 27.5 13.125C27.5 14.0885 27.4831 15.029 27.4511 15.9371C27.3465 18.904 27.2941 20.3874 26.0874 21.6033C24.8807 22.819 23.3554 22.8843 20.3046 23.0148C19.3873 23.054 18.4373 23.0834 17.4616 23.1019C16.5353 23.1194 16.072 23.1283 15.665 23.2833C15.258 23.4383 14.9156 23.7319 14.2306 24.3191L11.5063 26.6552C11.3409 26.797 11.1302 26.875 10.9124 26.875C10.4085 26.875 10 26.4665 10 25.9626V23.0274C9.89803 23.0232 9.79644 23.0191 9.69524 23.0148C6.64461 22.8843 5.11931 22.819 3.91259 21.6031C2.70586 20.3874 2.65352 18.904 2.54886 15.9371C2.51682 15.029 2.5 14.0885 2.5 13.125Z" stroke="#9CA1B8" stroke-width="1.875" stroke-linecap="round" stroke-linejoin="round"/>
</svg>
