<svg width="27" height="27" viewBox="0 0 27 27" fill="none" xmlns="http://www.w3.org/2000/svg">
<path opacity="0.4" d="M25.04 16.0307V15.9597V9.10526C25.04 7.26822 23.5503 5.77852 21.7132 5.77852C21.4577 5.77838 21.2161 5.66203 21.0565 5.46251L20.4566 4.71224C20.0579 4.21374 19.7566 3.82467 19.3571 3.55245C19.1067 3.38184 18.8321 3.24915 18.5424 3.16013C18.0802 3.01813 17.5877 3.02684 16.9493 3.02684H14.9695C14.3311 3.02684 13.8386 3.01813 13.3765 3.16013C13.0868 3.24915 12.8122 3.38184 12.5617 3.55245C12.1622 3.82467 11.8609 4.21374 11.4622 4.71224C10.9994 5.29069 10.8693 5.43996 10.7226 5.5399C10.6089 5.61734 10.4844 5.6779 10.3529 5.71833C10.1832 5.77046 9.98525 5.77852 9.24466 5.77852H8.80503H8.7341C7.23381 5.77849 6.02397 5.77846 5.07199 5.90643C4.08126 6.03963 3.24724 6.32525 2.58472 6.98776C1.92222 7.65027 1.6366 8.48429 1.5034 9.47502C1.37543 10.427 1.37546 11.6369 1.37549 13.1371V13.208V15.9597V16.0306C1.37546 17.5309 1.37543 18.7408 1.5034 19.6927C1.6366 20.6835 1.92222 21.5176 2.58472 22.18C3.24724 22.8425 4.08126 23.1282 5.07199 23.2614C6.02398 23.3894 7.23382 23.3894 8.73411 23.3892H8.80503H17.6104H17.6813C19.1816 23.3894 20.3915 23.3894 21.3435 23.2614C22.3342 23.1282 23.1683 22.8425 23.8308 22.18C24.4932 21.5176 24.7789 20.6835 24.9121 19.6927C25.0401 18.7408 25.04 17.5309 25.04 16.0307Z" fill="#E5AB47"/>
<path d="M7.70509 8.8053C8.31297 8.8053 8.80577 9.29808 8.80577 9.90597C8.80577 10.5139 8.31297 11.0066 7.70509 11.0066H5.50375C4.89587 11.0066 4.40308 10.5139 4.40308 9.90597C4.40308 9.29808 4.89587 8.8053 5.50375 8.8053H7.70509Z" fill="#E5AB47"/>
<path d="M19.2961 14.3086C19.2961 12.485 17.8177 11.0067 15.9941 11.0066C14.1704 11.0066 12.6921 12.485 12.6921 14.3086C12.6921 16.1323 14.1704 17.6106 15.9941 17.6106C17.8177 17.6106 19.2961 16.1323 19.2961 14.3086ZM21.4974 14.3086C21.4974 17.348 19.0335 19.812 15.9941 19.812C12.9547 19.812 10.4907 17.3481 10.4907 14.3086C10.4907 11.2692 12.9547 8.8053 15.9941 8.8053C19.0335 8.80533 21.4974 11.2692 21.4974 14.3086Z" fill="#E5AB47"/>
</svg>
