<svg width="33" height="33" viewBox="0 0 33 33" fill="none" xmlns="http://www.w3.org/2000/svg">
<path d="M30.8582 25.4917C30.8582 26.2033 30.5755 26.8858 30.0722 27.3891C29.569 27.8923 28.8865 28.175 28.1748 28.175H4.02488C3.31322 28.175 2.6307 27.8923 2.12748 27.3891C1.62426 26.8858 1.34155 26.2033 1.34155 25.4917V10.7333C1.34155 10.0217 1.62426 9.33917 2.12748 8.83595C2.6307 8.33273 3.31322 8.05002 4.02488 8.05002H9.39154L12.0749 4.02502H20.1249L22.8082 8.05002H28.1748C28.8865 8.05002 29.569 8.33273 30.0722 8.83595C30.5755 9.33917 30.8582 10.0217 30.8582 10.7333V25.4917Z" stroke="#656573" stroke-width="2" stroke-linecap="round" stroke-linejoin="round"/>
<path d="M16.1001 22.8083C19.064 22.8083 21.4667 20.4055 21.4667 17.4416C21.4667 14.4777 19.064 12.075 16.1001 12.075C13.1361 12.075 10.7334 14.4777 10.7334 17.4416C10.7334 20.4055 13.1361 22.8083 16.1001 22.8083Z" stroke="#656573" stroke-width="2" stroke-linecap="round" stroke-linejoin="round"/>
</svg>
