<svg width="33" height="33" viewBox="0 0 33 33" fill="none" xmlns="http://www.w3.org/2000/svg">
<path d="M25.4915 4.02502H6.70823C5.22627 4.02502 4.0249 5.22639 4.0249 6.70835V25.4917C4.0249 26.9736 5.22627 28.175 6.70823 28.175H25.4915C26.9735 28.175 28.1749 26.9736 28.1749 25.4917V6.70835C28.1749 5.22639 26.9735 4.02502 25.4915 4.02502Z" stroke="#656573" stroke-width="2" stroke-linecap="round" stroke-linejoin="round"/>
<path d="M11.4041 13.4166C12.5156 13.4166 13.4166 12.5156 13.4166 11.4041C13.4166 10.2926 12.5156 9.3916 11.4041 9.3916C10.2926 9.3916 9.3916 10.2926 9.3916 11.4041C9.3916 12.5156 10.2926 13.4166 11.4041 13.4166Z" stroke="#656573" stroke-width="2" stroke-linecap="round" stroke-linejoin="round"/>
<path d="M28.1749 20.1249L21.4666 13.4166L6.70825 28.1749" stroke="#656573" stroke-width="2" stroke-linecap="round" stroke-linejoin="round"/>
</svg>
