<svg width="16" height="22" viewBox="0 0 16 22" fill="none" xmlns="http://www.w3.org/2000/svg">
<path opacity="0.2" d="M15 7.85709C15 9.26981 14.5811 10.6508 13.7962 11.8254C13.0113 13.0001 11.8958 13.9156 10.5906 14.4562C9.28541 14.9969 7.84922 15.1383 6.46365 14.8627C5.07807 14.5871 3.80533 13.9068 2.80638 12.9079C1.80744 11.9089 1.12715 10.6362 0.851538 9.25059C0.575929 7.86501 0.717382 6.42882 1.25801 5.12364C1.79863 3.81845 2.71415 2.70289 3.88879 1.91802C5.06343 1.13315 6.44442 0.714233 7.85715 0.714233C9.75155 0.714233 11.5684 1.46678 12.9079 2.80633C14.2475 4.14587 15 5.96269 15 7.85709Z" fill="#A475EF"/>
<path d="M8.57143 12.8571V21.2857C8.57143 21.4752 8.49617 21.6568 8.36222 21.7908C8.22826 21.9247 8.04658 22 7.85714 22C7.6677 22 7.48602 21.9247 7.35207 21.7908C7.21811 21.6568 7.14286 21.4752 7.14286 21.2857V12.8571C7.14286 12.6677 7.21811 12.486 7.35207 12.3521C7.48602 12.2181 7.6677 12.1429 7.85714 12.1429C8.04658 12.1429 8.22826 12.2181 8.36222 12.3521C8.49617 12.486 8.57143 12.6677 8.57143 12.8571ZM15 7.14286H9.58125L13.3625 3.3625C13.4965 3.22847 13.5718 3.04669 13.5718 2.85714C13.5718 2.6676 13.4965 2.48582 13.3625 2.35179C13.2285 2.21776 13.0467 2.14246 12.8571 2.14246C12.6676 2.14246 12.4858 2.21776 12.3518 2.35179L8.57143 6.13304V0.714286C8.57143 0.524845 8.49617 0.343164 8.36222 0.209209C8.22826 0.0752549 8.04658 0 7.85714 0C7.6677 0 7.48602 0.0752549 7.35207 0.209209C7.21811 0.343164 7.14286 0.524845 7.14286 0.714286V6.13304L3.3625 2.35179C3.22847 2.21776 3.04669 2.14246 2.85714 2.14246C2.6676 2.14246 2.48581 2.21776 2.35179 2.35179C2.21776 2.48582 2.14246 2.6676 2.14246 2.85714C2.14246 3.04669 2.21776 3.22847 2.35179 3.3625L6.13304 7.14286H0.714286C0.524845 7.14286 0.343164 7.21811 0.20921 7.35207C0.075255 7.48602 0 7.6677 0 7.85714C0 8.04658 0.075255 8.22826 0.20921 8.36222C0.343164 8.49617 0.524845 8.57143 0.714286 8.57143H6.13304L2.35179 12.3518C2.21776 12.4858 2.14246 12.6676 2.14246 12.8571C2.14246 13.0467 2.21776 13.2285 2.35179 13.3625C2.48581 13.4965 2.6676 13.5718 2.85714 13.5718C3.04669 13.5718 3.22847 13.4965 3.3625 13.3625L7.85714 8.86696L12.3518 13.3625C12.4181 13.4289 12.4969 13.4815 12.5836 13.5174C12.6704 13.5533 12.7633 13.5718 12.8571 13.5718C12.951 13.5718 13.0439 13.5533 13.1306 13.5174C13.2174 13.4815 13.2961 13.4289 13.3625 13.3625C13.4289 13.2961 13.4815 13.2174 13.5174 13.1306C13.5533 13.0439 13.5718 12.951 13.5718 12.8571C13.5718 12.7633 13.5533 12.6704 13.5174 12.5836C13.4815 12.4969 13.4289 12.4181 13.3625 12.3518L9.58125 8.57143H15C15.1894 8.57143 15.3711 8.49617 15.5051 8.36222C15.639 8.22826 15.7143 8.04658 15.7143 7.85714C15.7143 7.6677 15.639 7.48602 15.5051 7.35207C15.3711 7.21811 15.1894 7.14286 15 7.14286Z" fill="#A475EF"/>
</svg>
