<svg width="20" height="26" viewBox="0 0 20 26" fill="none" xmlns="http://www.w3.org/2000/svg">
<path opacity="0.2" d="M17 9.85709C17 11.2698 16.5811 12.6508 15.7962 13.8254C15.0113 15.0001 13.8958 15.9156 12.5906 16.4562C11.2854 16.9969 9.84922 17.1383 8.46365 16.8627C7.07807 16.5871 5.80533 15.9068 4.80638 14.9079C3.80744 13.9089 3.12715 12.6362 2.85154 11.2506C2.57593 9.86501 2.71738 8.42882 3.25801 7.12364C3.79863 5.81845 4.71415 4.70289 5.88879 3.91802C7.06343 3.13315 8.44442 2.71423 9.85715 2.71423C11.7516 2.71423 13.5684 3.46678 14.9079 4.80633C16.2475 6.14587 17 7.96269 17 9.85709Z" fill="#1C1C1E"/>
<path d="M10.5714 14.8571V23.2857C10.5714 23.4752 10.4962 23.6568 10.3622 23.7908C10.2283 23.9247 10.0466 24 9.85714 24C9.6677 24 9.48602 23.9247 9.35207 23.7908C9.21811 23.6568 9.14286 23.4752 9.14286 23.2857V14.8571C9.14286 14.6677 9.21811 14.486 9.35207 14.3521C9.48602 14.2181 9.6677 14.1429 9.85714 14.1429C10.0466 14.1429 10.2283 14.2181 10.3622 14.3521C10.4962 14.486 10.5714 14.6677 10.5714 14.8571ZM17 9.14286H11.5813L15.3625 5.3625C15.4965 5.22847 15.5718 5.04669 15.5718 4.85714C15.5718 4.6676 15.4965 4.48582 15.3625 4.35179C15.2285 4.21776 15.0467 4.14246 14.8571 4.14246C14.6676 4.14246 14.4858 4.21776 14.3518 4.35179L10.5714 8.13304V2.71429C10.5714 2.52485 10.4962 2.34316 10.3622 2.20921C10.2283 2.07525 10.0466 2 9.85714 2C9.6677 2 9.48602 2.07525 9.35207 2.20921C9.21811 2.34316 9.14286 2.52485 9.14286 2.71429V8.13304L5.3625 4.35179C5.22847 4.21776 5.04669 4.14246 4.85714 4.14246C4.6676 4.14246 4.48581 4.21776 4.35179 4.35179C4.21776 4.48582 4.14246 4.6676 4.14246 4.85714C4.14246 5.04669 4.21776 5.22847 4.35179 5.3625L8.13304 9.14286H2.71429C2.52485 9.14286 2.34316 9.21811 2.20921 9.35207C2.07526 9.48602 2 9.6677 2 9.85714C2 10.0466 2.07526 10.2283 2.20921 10.3622C2.34316 10.4962 2.52485 10.5714 2.71429 10.5714H8.13304L4.35179 14.3518C4.21776 14.4858 4.14246 14.6676 4.14246 14.8571C4.14246 15.0467 4.21776 15.2285 4.35179 15.3625C4.48581 15.4965 4.6676 15.5718 4.85714 15.5718C5.04669 15.5718 5.22847 15.4965 5.3625 15.3625L9.85714 10.867L14.3518 15.3625C14.4181 15.4289 14.4969 15.4815 14.5836 15.5174C14.6704 15.5533 14.7633 15.5718 14.8571 15.5718C14.951 15.5718 15.0439 15.5533 15.1306 15.5174C15.2174 15.4815 15.2961 15.4289 15.3625 15.3625C15.4289 15.2961 15.4815 15.2174 15.5174 15.1306C15.5533 15.0439 15.5718 14.951 15.5718 14.8571C15.5718 14.7633 15.5533 14.6704 15.5174 14.5836C15.4815 14.4969 15.4289 14.4181 15.3625 14.3518L11.5813 10.5714H17C17.1894 10.5714 17.3711 10.4962 17.5051 10.3622C17.639 10.2283 17.7143 10.0466 17.7143 9.85714C17.7143 9.6677 17.639 9.48602 17.5051 9.35207C17.3711 9.21811 17.1894 9.14286 17 9.14286Z" fill="#1C1C1E"/>
</svg>
