<svg width="24" height="24" viewBox="0 0 24 24" fill="none" xmlns="http://www.w3.org/2000/svg">
<path opacity="0.4" d="M12 1.75C12.7662 1.75 13.5122 1.83667 14.2305 1.99609C13.1655 2.99911 12.5 4.42159 12.5 6C12.5 9.03757 14.9624 11.5 18 11.5C19.5784 11.5 20.9999 10.8336 22.0029 9.76855C22.1625 10.4871 22.25 11.2334 22.25 12C22.25 17.6609 17.6609 22.25 12 22.25C6.33908 22.25 1.75 17.6609 1.75 12C1.75 6.33908 6.33908 1.75 12 1.75Z" fill="#C19BFF"/>
<path d="M8 11.5H12C12.2762 11.5 12.5 11.7238 12.5 12C12.5 12.2762 12.2762 12.5 12 12.5H8C7.72386 12.5 7.5 12.2762 7.5 12C7.5 11.7238 7.72386 11.5 8 11.5Z" fill="#A475EF" stroke="#A475EF"/>
<path d="M8 15.5H16C16.2762 15.5 16.5 15.7238 16.5 16C16.5 16.2762 16.2762 16.5 16 16.5H8C7.72386 16.5 7.5 16.2762 7.5 16C7.5 15.7238 7.72386 15.5 8 15.5Z" fill="#A475EF" stroke="#A475EF"/>
<path d="M18 2.25C20.0711 2.25 21.75 3.92893 21.75 6C21.75 8.07107 20.0711 9.75 18 9.75C15.9289 9.75 14.25 8.07107 14.25 6C14.25 3.92893 15.9289 2.25 18 2.25Z" fill="#A475EF" stroke="#A475EF"/>
</svg>
