<svg width="20" height="20" viewBox="0 0 20 20" fill="none" xmlns="http://www.w3.org/2000/svg">
<path d="M9.85449 0C10.2135 0 10.5049 0.291406 10.5049 0.650391V9.20508H19.0586C19.4175 9.20508 19.7089 9.49655 19.709 9.85547C19.709 10.2145 19.4176 10.5059 19.0586 10.5059H10.5049V19.0586C10.5047 19.4174 10.2133 19.709 9.85449 19.709C9.49577 19.7088 9.20432 19.4173 9.2041 19.0586V10.5059H0.650391C0.291473 10.5058 0 10.2144 0 9.85547C8.25318e-05 9.4966 0.291524 9.20516 0.650391 9.20508H9.2041V0.650391C9.2041 0.291494 9.49563 0.000144037 9.85449 0Z" fill="#8C43FF"/>
</svg>
