<svg xmlns="http://www.w3.org/2000/svg" width="20" height="20" viewBox="0 0 20 20" fill="none">
  <path fill-rule="evenodd" clip-rule="evenodd" d="M10 3.125C6.20304 3.125 3.125 6.20304 3.125 10C3.125 13.7969 6.20304 16.875 10 16.875C13.7969 16.875 16.875 13.7969 16.875 10C16.875 6.20304 13.7969 3.125 10 3.125ZM1.875 10C1.875 5.51268 5.51268 1.875 10 1.875C14.4873 1.875 18.125 5.51268 18.125 10C18.125 14.4873 14.4873 18.125 10 18.125C5.51268 18.125 1.875 14.4873 1.875 10Z" fill="#A475EF"/>
  <path d="M6.0415 10.0001C6.0415 7.81396 7.81371 6.04175 9.99984 6.04175C12.186 6.04175 13.9582 7.81396 13.9582 10.0001C13.9582 12.1862 12.186 13.9584 9.99984 13.9584C7.81371 13.9584 6.0415 12.1862 6.0415 10.0001Z" fill="#A475EF"/>
</svg>
